<svg xmlns="http://www.w3.org/2000/svg" width="24" height="24" viewBox="0 0 24 24"><path fill="#000" fill-rule="evenodd" d="M10.33 4.79 L10.97 1.65 L13.03 1.65 L13.67 4.79 L15.92 5.72 L18.59 3.96 L20.04 5.41 L18.28 8.08 L19.21 10.33 L22.35 10.97 L22.35 13.03 L19.21 13.67 L18.28 15.92 L20.04 18.59 L18.59 20.04 L15.92 18.28 L13.67 19.21 L13.03 22.35 L10.97 22.35 L10.33 19.21 L8.08 18.28 L5.41 20.04 L3.96 18.59 L5.72 15.92 L4.79 13.67 L1.65 13.03 L1.65 10.97 L4.79 10.33 L5.72 8.08 L3.96 5.41 L5.41 3.96 L8.08 5.72Z M12 8.6 a3.4 3.4 0 1 0 0 6.8 a3.4 3.4 0 1 0 0 -6.8Z"/></svg>